<?xml version="1.0" encoding="UTF-8" standalone="no"?>
<!DOCTYPE svg PUBLIC "-//W3C//DTD SVG 1.1//EN"
 "http://www.w3.org/Graphics/SVG/1.1/DTD/svg11.dtd">
<!-- Generated by graphviz version 2.43.0 (0)
 -->
<!-- Title: cluster Pages: 1 -->
<svg width="1963pt" height="933pt"
 viewBox="0.00 0.00 1963.00 932.74" xmlns="http://www.w3.org/2000/svg" xmlns:xlink="http://www.w3.org/1999/xlink">
<g id="graph0" class="graph" transform="scale(1 1) rotate(0) translate(4 928.74)">
<title>cluster</title>
<polygon fill="white" stroke="transparent" points="-4,4 -4,-928.74 1959,-928.74 1959,4 -4,4"/>
<g id="clust1" class="cluster">
<title>cluster_do</title>
<polygon fill="#0069ff" stroke="black" points="8,-8 8,-916.74 1905,-916.74 1905,-8 8,-8"/>
<text text-anchor="middle" x="956.5" y="-899.94" font-family="Times,serif" font-size="16.00">Digital Ocean</text>
</g>
<g id="clust5" class="cluster">
<title>cluster</title>
<polygon fill="lightblue" stroke="black" points="16,-271 16,-732.74 1897,-732.74 1897,-271 16,-271"/>
<text text-anchor="middle" x="956.5" y="-715.94" font-family="Times,serif" font-size="16.00">Kubernetes Cluster</text>
</g>
<g id="clust6" class="cluster">
<title>cluster_web_system</title>
<polygon fill="lightgreen" stroke="black" points="24,-453 24,-618 758,-618 758,-453 24,-453"/>
<text text-anchor="middle" x="391" y="-601.2" font-family="Times,serif" font-size="16.00">web&#45;system Namespace</text>
</g>
<g id="clust7" class="cluster">
<title>cluster_default</title>
<polygon fill="lightgreen" stroke="black" points="766,-279 766,-618 1889,-618 1889,-279 766,-279"/>
<text text-anchor="middle" x="1327.5" y="-601.2" font-family="Times,serif" font-size="16.00">default Namespace (Argo Events)</text>
</g>
<g id="clust2" class="cluster">
<title>cluster_spaces</title>
<polygon fill="white" stroke="black" points="1211,-16 1211,-240 1877,-240 1877,-16 1211,-16"/>
<text text-anchor="middle" x="1544" y="-223.2" font-family="Times,serif" font-size="16.00">Digital Ocean Spaces + CDN (S3/Ceph)</text>
</g>
<!-- DNS -->
<g id="node1" class="node">
<title>DNS</title>
<polygon fill="white" stroke="black" points="757.5,-882.74 372.5,-882.74 368.5,-878.74 368.5,-846.74 753.5,-846.74 757.5,-850.74 757.5,-882.74"/>
<polyline fill="none" stroke="black" points="753.5,-878.74 368.5,-878.74 "/>
<polyline fill="none" stroke="black" points="753.5,-878.74 753.5,-846.74 "/>
<polyline fill="none" stroke="black" points="753.5,-878.74 757.5,-882.74 "/>
<text text-anchor="middle" x="563" y="-861.04" font-family="Times,serif" font-size="14.00">A Records: happylittlecloud.ca, *.happylittlecloud.ca</text>
</g>
<!-- LB -->
<g id="node2" class="node">
<title>LB</title>
<polygon fill="white" stroke="black" points="755,-809.74 375,-809.74 371,-805.74 371,-773.74 751,-773.74 755,-777.74 755,-809.74"/>
<polyline fill="none" stroke="black" points="751,-805.74 371,-805.74 "/>
<polyline fill="none" stroke="black" points="751,-805.74 751,-773.74 "/>
<polyline fill="none" stroke="black" points="751,-805.74 755,-809.74 "/>
<text text-anchor="middle" x="563" y="-788.04" font-family="Times,serif" font-size="14.00">Digital Ocean Load Balancer with LetsEncrypt Cert</text>
</g>
<!-- DNS&#45;&gt;LB -->
<g id="edge1" class="edge">
<title>DNS&#45;&gt;LB</title>
<path fill="none" stroke="black" d="M563,-846.55C563,-838.53 563,-828.79 563,-819.81"/>
<polygon fill="black" stroke="black" points="566.5,-819.77 563,-809.77 559.5,-819.77 566.5,-819.77"/>
</g>
<!-- NGINX -->
<g id="node9" class="node">
<title>NGINX</title>
<ellipse fill="none" stroke="black" cx="563" cy="-671.87" rx="173.9" ry="26.74"/>
<text text-anchor="middle" x="563" y="-675.67" font-family="Times,serif" font-size="14.00">Service: Nginx Ingress Gateway</text>
<text text-anchor="middle" x="563" y="-660.67" font-family="Times,serif" font-size="14.00">Type: LoadBalancer</text>
</g>
<!-- LB&#45;&gt;NGINX -->
<g id="edge8" class="edge">
<title>LB&#45;&gt;NGINX</title>
<path fill="none" stroke="black" d="M563,-773.6C563,-756.81 563,-730.7 563,-709.26"/>
<polygon fill="black" stroke="black" points="566.5,-709.18 563,-699.18 559.5,-709.18 566.5,-709.18"/>
<text text-anchor="middle" x="685" y="-744.54" font-family="Times,serif" font-size="14.00">SSL Termination; HTTPS &#45;&gt; HTTP</text>
</g>
<!-- S3 -->
<g id="node3" class="node">
<title>S3</title>
<path fill="none" stroke="black" d="M1451,-202.73C1451,-204.53 1399.01,-206 1335,-206 1270.99,-206 1219,-204.53 1219,-202.73 1219,-202.73 1219,-173.27 1219,-173.27 1219,-171.47 1270.99,-170 1335,-170 1399.01,-170 1451,-171.47 1451,-173.27 1451,-173.27 1451,-202.73 1451,-202.73"/>
<path fill="none" stroke="black" d="M1451,-202.73C1451,-200.92 1399.01,-199.45 1335,-199.45 1270.99,-199.45 1219,-200.92 1219,-202.73"/>
<text text-anchor="middle" x="1335" y="-184.3" font-family="Times,serif" font-size="14.00">Bucket: s3.happylittlecloud.ca</text>
</g>
<!-- CDN -->
<g id="node4" class="node">
<title>CDN</title>
<path fill="none" stroke="black" d="M1869,-202.73C1869,-204.53 1823.28,-206 1767,-206 1710.72,-206 1665,-204.53 1665,-202.73 1665,-202.73 1665,-173.27 1665,-173.27 1665,-171.47 1710.72,-170 1767,-170 1823.28,-170 1869,-171.47 1869,-173.27 1869,-173.27 1869,-202.73 1869,-202.73"/>
<path fill="none" stroke="black" d="M1869,-202.73C1869,-200.92 1823.28,-199.45 1767,-199.45 1710.72,-199.45 1665,-200.92 1665,-202.73"/>
<text text-anchor="middle" x="1767" y="-184.3" font-family="Times,serif" font-size="14.00">Content Delivery Network</text>
</g>
<!-- S3&#45;&gt;CDN -->
<g id="edge2" class="edge">
<title>S3&#45;&gt;CDN</title>
<path fill="none" stroke="black" d="M1451.05,-188C1514.14,-188 1591.83,-188 1654.38,-188"/>
<polygon fill="black" stroke="black" points="1654.68,-191.5 1664.68,-188 1654.68,-184.5 1654.68,-191.5"/>
<text text-anchor="middle" x="1558" y="-194.8" font-family="Times,serif" font-size="14.00">Geo&#45;distributed edge&#45;cache</text>
</g>
<!-- bdrummond -->
<g id="node5" class="node">
<title>bdrummond</title>
<polygon fill="none" stroke="black" points="1443,-133 1440,-137 1419,-137 1416,-133 1221,-133 1221,-97 1443,-97 1443,-133"/>
<text text-anchor="middle" x="1332" y="-111.3" font-family="Times,serif" font-size="14.00">bdrummond/: website assets</text>
</g>
<!-- S3&#45;&gt;bdrummond -->
<g id="edge3" class="edge">
<title>S3&#45;&gt;bdrummond</title>
<path fill="none" stroke="black" d="M1334.27,-169.81C1333.93,-161.79 1333.52,-152.05 1333.14,-143.07"/>
<polygon fill="black" stroke="black" points="1336.64,-142.87 1332.72,-133.03 1329.64,-143.17 1336.64,-142.87"/>
</g>
<!-- www -->
<g id="node6" class="node">
<title>www</title>
<polygon fill="none" stroke="black" points="1773,-133 1770,-137 1749,-137 1746,-133 1461,-133 1461,-97 1773,-97 1773,-133"/>
<text text-anchor="middle" x="1617" y="-111.3" font-family="Times,serif" font-size="14.00">www/: resumes and other shared content</text>
</g>
<!-- S3&#45;&gt;www -->
<g id="edge4" class="edge">
<title>S3&#45;&gt;www</title>
<path fill="none" stroke="black" d="M1402.19,-170.08C1443.45,-159.7 1496.45,-146.35 1539.49,-135.52"/>
<polygon fill="black" stroke="black" points="1540.51,-138.87 1549.35,-133.03 1538.8,-132.08 1540.51,-138.87"/>
</g>
<!-- Page -->
<g id="node7" class="node">
<title>Page</title>
<polygon fill="yellow" stroke="black" points="1336,-60 1250,-60 1250,-24 1336,-24 1336,-60"/>
<text text-anchor="middle" x="1293" y="-38.3" font-family="Times,serif" font-size="14.00">This Page</text>
</g>
<!-- bdrummond&#45;&gt;Page -->
<g id="edge5" class="edge">
<title>bdrummond&#45;&gt;Page</title>
<path fill="none" stroke="black" d="M1322.56,-96.81C1317.96,-88.44 1312.33,-78.2 1307.23,-68.9"/>
<polygon fill="black" stroke="black" points="1310.24,-67.11 1302.35,-60.03 1304.1,-70.48 1310.24,-67.11"/>
</g>
<!-- Assets -->
<g id="node8" class="node">
<title>Assets</title>
<polygon fill="#99dd00" stroke="black" points="1810,-60 1664,-60 1664,-24 1810,-24 1810,-60"/>
<text text-anchor="middle" x="1737" y="-38.3" font-family="Times,serif" font-size="14.00">This Page&#39;s assets</text>
</g>
<!-- bdrummond&#45;&gt;Assets -->
<g id="edge6" class="edge">
<title>bdrummond&#45;&gt;Assets</title>
<path fill="none" stroke="black" d="M1429.01,-96.99C1497.54,-84.98 1588.42,-69.05 1653.68,-57.61"/>
<polygon fill="black" stroke="black" points="1654.68,-60.98 1663.93,-55.81 1653.47,-54.09 1654.68,-60.98"/>
</g>
<!-- Page&#45;&gt;Assets -->
<g id="edge7" class="edge">
<title>Page&#45;&gt;Assets</title>
<path fill="none" stroke="black" d="M1336.38,-42C1409.75,-42 1559.54,-42 1653.73,-42"/>
<polygon fill="black" stroke="black" points="1653.8,-45.5 1663.8,-42 1653.8,-38.5 1653.8,-45.5"/>
<text text-anchor="middle" x="1500" y="-48.8" font-family="Times,serif" font-size="14.00">Page contains hrefs to static assets in CDN</text>
</g>
<!-- Blair -->
<g id="node10" class="node">
<title>Blair</title>
<ellipse fill="none" stroke="black" cx="195" cy="-566" rx="163.27" ry="18"/>
<text text-anchor="middle" x="195" y="-562.3" font-family="Times,serif" font-size="14.00">Ingress: blair.happylittlecloud.ca</text>
</g>
<!-- NGINX&#45;&gt;Blair -->
<g id="edge11" class="edge">
<title>NGINX&#45;&gt;Blair</title>
<path fill="none" stroke="black" d="M477.98,-648.43C443.48,-639.19 403.29,-628.27 367,-618 330.74,-607.74 290.34,-595.78 257.81,-586.03"/>
<polygon fill="black" stroke="black" points="258.56,-582.6 247.98,-583.08 256.55,-589.31 258.56,-582.6"/>
</g>
<!-- DatasetteSvc -->
<g id="node12" class="node">
<title>DatasetteSvc</title>
<ellipse fill="none" stroke="black" cx="563" cy="-566" rx="186.57" ry="18"/>
<text text-anchor="middle" x="563" y="-562.3" font-family="Times,serif" font-size="14.00">Ingress: datasette.happylittlecloud.ca</text>
</g>
<!-- NGINX&#45;&gt;DatasetteSvc -->
<g id="edge9" class="edge">
<title>NGINX&#45;&gt;DatasetteSvc</title>
<path fill="none" stroke="black" d="M563,-644.93C563,-629.5 563,-609.95 563,-594.29"/>
<polygon fill="black" stroke="black" points="566.5,-594.17 563,-584.17 559.5,-594.17 566.5,-594.17"/>
</g>
<!-- EventURL -->
<g id="node15" class="node">
<title>EventURL</title>
<ellipse fill="none" stroke="black" cx="947" cy="-566" rx="172.77" ry="18"/>
<text text-anchor="middle" x="947" y="-562.3" font-family="Times,serif" font-size="14.00">Ingress: events.happylittlecloud.ca</text>
</g>
<!-- NGINX&#45;&gt;EventURL -->
<g id="edge24" class="edge">
<title>NGINX&#45;&gt;EventURL</title>
<path fill="none" stroke="black" d="M648.26,-648.4C683.49,-639.07 724.73,-628.09 762,-618 801.1,-607.42 844.78,-595.39 879.88,-585.67"/>
<polygon fill="black" stroke="black" points="880.84,-589.03 889.54,-582.99 878.97,-582.29 880.84,-589.03"/>
</g>
<!-- PageLink -->
<g id="node11" class="node">
<title>PageLink</title>
<polygon fill="yellow" stroke="black" points="360,-491 32,-491 32,-461 50,-461 50,-467 360,-467 360,-461 378,-479 360,-497 360,-491"/>
<text text-anchor="middle" x="205" y="-475.3" font-family="Times,serif" font-size="14.00">s3.happylittlecloud.ca/bdrummond/index.html</text>
</g>
<!-- Blair&#45;&gt;PageLink -->
<g id="edge12" class="edge">
<title>Blair&#45;&gt;PageLink</title>
<path fill="none" stroke="black" d="M197.02,-547.8C198.39,-536.16 200.23,-520.55 201.8,-507.24"/>
<polygon fill="black" stroke="black" points="205.29,-507.52 202.98,-497.18 198.33,-506.7 205.29,-507.52"/>
<text text-anchor="middle" x="259" y="-518.8" font-family="Times,serif" font-size="14.00">nginx rewrite: /*</text>
</g>
<!-- DatasettePod -->
<g id="node13" class="node">
<title>DatasettePod</title>
<polygon fill="none" stroke="black" points="621.5,-497 504.5,-497 504.5,-461 621.5,-461 621.5,-497"/>
<text text-anchor="middle" x="563" y="-475.3" font-family="Times,serif" font-size="14.00">Datasette Pod</text>
</g>
<!-- DatasetteSvc&#45;&gt;DatasettePod -->
<g id="edge10" class="edge">
<title>DatasetteSvc&#45;&gt;DatasettePod</title>
<path fill="none" stroke="black" d="M563,-547.8C563,-536.16 563,-520.55 563,-507.24"/>
<polygon fill="black" stroke="black" points="566.5,-507.18 563,-497.18 559.5,-507.18 566.5,-507.18"/>
</g>
<!-- Git -->
<g id="node14" class="node">
<title>Git</title>
<polygon fill="white" stroke="black" points="1684,-584 1681,-588 1660,-588 1657,-584 1318,-584 1318,-548 1684,-548 1684,-584"/>
<text text-anchor="middle" x="1501" y="-562.3" font-family="Times,serif" font-size="14.00">Github Repo: blairdrummond/happylittlecloud.ca</text>
</g>
<!-- Git&#45;&gt;EventURL -->
<g id="edge23" class="edge">
<title>Git&#45;&gt;EventURL</title>
<path fill="none" stroke="black" d="M1317.8,-566C1257.45,-566 1190.36,-566 1130.02,-566"/>
<polygon fill="black" stroke="black" points="1130.01,-562.5 1120.01,-566 1130.01,-569.5 1130.01,-562.5"/>
<text text-anchor="middle" x="1218.94" y="-572.8" font-family="Times,serif" font-size="14.00">Webhook trigger on push</text>
</g>
<!-- Source -->
<g id="node16" class="node">
<title>Source</title>
<ellipse fill="none" stroke="black" cx="937" cy="-479" rx="163.27" ry="18"/>
<text text-anchor="middle" x="937" y="-475.3" font-family="Times,serif" font-size="14.00">eventsources.argoproj.io: Github</text>
</g>
<!-- EventURL&#45;&gt;Source -->
<g id="edge18" class="edge">
<title>EventURL&#45;&gt;Source</title>
<path fill="none" stroke="black" d="M944.98,-547.8C943.61,-536.16 941.77,-520.55 940.2,-507.24"/>
<polygon fill="black" stroke="black" points="943.67,-506.7 939.02,-497.18 936.71,-507.52 943.67,-506.7"/>
</g>
<!-- Source&#45;&gt;Git -->
<g id="edge22" class="edge">
<title>Source&#45;&gt;Git</title>
<path fill="none" stroke="black" d="M1029.42,-493.93C1124.44,-508.25 1272.93,-530.63 1377.87,-546.44"/>
<polygon fill="black" stroke="black" points="1377.47,-549.92 1387.88,-547.95 1378.52,-543 1377.47,-549.92"/>
<text text-anchor="middle" x="1321" y="-518.8" font-family="Times,serif" font-size="14.00">Configure webhook</text>
</g>
<!-- SourcePod -->
<g id="node17" class="node">
<title>SourcePod</title>
<polygon fill="none" stroke="black" points="1118,-410 926,-410 926,-374 1118,-374 1118,-410"/>
<text text-anchor="middle" x="1022" y="-388.3" font-family="Times,serif" font-size="14.00">Github EventSource Pod</text>
</g>
<!-- Source&#45;&gt;SourcePod -->
<g id="edge15" class="edge">
<title>Source&#45;&gt;SourcePod</title>
<path fill="none" stroke="black" d="M954.2,-460.8C966.64,-448.36 983.64,-431.36 997.5,-417.5"/>
<polygon fill="black" stroke="black" points="1000.23,-419.72 1004.82,-410.18 995.28,-414.77 1000.23,-419.72"/>
</g>
<!-- Bus -->
<g id="node18" class="node">
<title>Bus</title>
<ellipse fill="none" stroke="black" cx="1293" cy="-479" rx="157.07" ry="18"/>
<text text-anchor="middle" x="1293" y="-475.3" font-family="Times,serif" font-size="14.00">eventbus.argoproj.io: EventBus</text>
</g>
<!-- Source&#45;&gt;Bus -->
<!-- SourcePod&#45;&gt;Bus -->
<g id="edge19" class="edge">
<title>SourcePod&#45;&gt;Bus</title>
<path fill="none" stroke="black" d="M1058.76,-410.02C1082.44,-420.53 1114.11,-433.73 1143,-443 1163.98,-449.73 1186.99,-455.76 1208.55,-460.83"/>
<polygon fill="black" stroke="black" points="1207.81,-464.25 1218.34,-463.09 1209.39,-457.43 1207.81,-464.25"/>
<text text-anchor="middle" x="1216" y="-431.8" font-family="Times,serif" font-size="14.00">Push Event into Bus</text>
</g>
<!-- BusPod -->
<g id="node19" class="node">
<title>BusPod</title>
<polygon fill="none" stroke="black" points="1351,-410 1235,-410 1235,-374 1351,-374 1351,-410"/>
<text text-anchor="middle" x="1293" y="-388.3" font-family="Times,serif" font-size="14.00">EventBus Pod</text>
</g>
<!-- Bus&#45;&gt;BusPod -->
<g id="edge16" class="edge">
<title>Bus&#45;&gt;BusPod</title>
<path fill="none" stroke="black" d="M1293,-460.8C1293,-449.16 1293,-433.55 1293,-420.24"/>
<polygon fill="black" stroke="black" points="1296.5,-420.18 1293,-410.18 1289.5,-420.18 1296.5,-420.18"/>
</g>
<!-- Sensor -->
<g id="node20" class="node">
<title>Sensor</title>
<ellipse fill="none" stroke="black" cx="1717" cy="-479" rx="143.77" ry="18"/>
<text text-anchor="middle" x="1717" y="-475.3" font-family="Times,serif" font-size="14.00">sensors.argoproj.io: S3&#45;Sync</text>
</g>
<!-- Bus&#45;&gt;Sensor -->
<!-- Bus&#45;&gt;Sensor -->
<g id="edge20" class="edge">
<title>Bus&#45;&gt;Sensor</title>
<path fill="none" stroke="black" d="M1450.58,-479C1487.29,-479 1526.34,-479 1562.9,-479"/>
<polygon fill="black" stroke="black" points="1563.14,-482.5 1573.14,-479 1563.14,-475.5 1563.14,-482.5"/>
<text text-anchor="middle" x="1511.82" y="-485.8" font-family="Times,serif" font-size="14.00">Read from Bus</text>
</g>
<!-- SensorPod -->
<g id="node21" class="node">
<title>SensorPod</title>
<polygon fill="none" stroke="black" points="1774.5,-410 1615.5,-410 1615.5,-374 1774.5,-374 1774.5,-410"/>
<text text-anchor="middle" x="1695" y="-388.3" font-family="Times,serif" font-size="14.00">S3&#45;Sync Sensor Pod</text>
</g>
<!-- Sensor&#45;&gt;SensorPod -->
<g id="edge17" class="edge">
<title>Sensor&#45;&gt;SensorPod</title>
<path fill="none" stroke="black" d="M1712.55,-460.8C1709.54,-449.16 1705.49,-433.55 1702.05,-420.24"/>
<polygon fill="black" stroke="black" points="1705.34,-418.98 1699.45,-410.18 1698.56,-420.73 1705.34,-418.98"/>
</g>
<!-- Workflow -->
<g id="node22" class="node">
<title>Workflow</title>
<polygon fill="orange" stroke="black" points="1862,-317 1502,-317 1502,-293 1862,-293 1874,-305 1862,-317"/>
<text text-anchor="middle" x="1688" y="-301.3" font-family="Times,serif" font-size="14.00">Argo Workflow: s3&#45;sync, mc mirror and flush CDN</text>
</g>
<!-- SensorPod&#45;&gt;Workflow -->
<g id="edge21" class="edge">
<title>SensorPod&#45;&gt;Workflow</title>
<path fill="none" stroke="black" stroke-dasharray="5,2" d="M1687.27,-373.9C1685.12,-368.31 1683.08,-362 1682,-356 1680.68,-348.63 1680.91,-340.6 1681.81,-333.17"/>
<polygon fill="black" stroke="black" points="1685.28,-333.63 1683.42,-323.2 1678.37,-332.51 1685.28,-333.63"/>
<text text-anchor="middle" x="1741.5" y="-344.8" font-family="Times,serif" font-size="14.00">Create Workflow</text>
</g>
<!-- Workflow&#45;&gt;S3 -->
<g id="edge26" class="edge">
<title>Workflow&#45;&gt;S3</title>
<path fill="none" stroke="black" stroke-dasharray="5,2" d="M1635.53,-286.91C1571.92,-266.18 1464.84,-231.3 1397.16,-209.25"/>
<polygon fill="black" stroke="black" points="1398.06,-205.86 1387.47,-206.09 1395.89,-212.52 1398.06,-205.86"/>
<text text-anchor="middle" x="1615" y="-251.8" font-family="Times,serif" font-size="14.00">Mirror Git Folder</text>
</g>
<!-- Workflow&#45;&gt;CDN -->
<g id="edge27" class="edge">
<title>Workflow&#45;&gt;CDN</title>
<path fill="none" stroke="black" stroke-dasharray="5,2" d="M1700,-286.53C1713.12,-267.43 1734.29,-236.61 1749.32,-214.73"/>
<polygon fill="black" stroke="black" points="1752.37,-216.48 1755.15,-206.25 1746.6,-212.51 1752.37,-216.48"/>
<text text-anchor="middle" x="1764.5" y="-251.8" font-family="Times,serif" font-size="14.00">Flush CDN</text>
</g>
<!-- Workflow&#45;&gt;Git -->
<g id="edge25" class="edge">
<title>Workflow&#45;&gt;Git</title>
<path fill="none" stroke="black" stroke-dasharray="5,2" d="M1768.75,-323.09C1780.26,-327.71 1791.42,-333.58 1801,-341 1832.06,-365.08 1914.59,-443.44 1870,-497 1846.32,-525.45 1770.94,-542.04 1694.43,-551.69"/>
<polygon fill="black" stroke="black" points="1693.63,-548.27 1684.12,-552.95 1694.48,-555.21 1693.63,-548.27"/>
<text text-anchor="middle" x="1917.5" y="-431.8" font-family="Times,serif" font-size="14.00">clone repo</text>
</g>
</g>
</svg>
